Coordinates
version=1
nRows=43
nColumns=12
inDegrees=yes

Units are S.I. units (second, meters, Newtons, ...)
Angles are in degrees

endheader
time	SC_y	SC_z	SC_x	AC_y	AC_z	AC_x	GH_y	GH_z	GH_yy	EL_x	PS_y
       0.0              -11.04          5.394          24.42          39.99         0.1147         -16.74         -68.78          82.79         -124.9          50.55          49.23
   0.02187              -11.04          5.399          24.42           40.0          0.114         -16.74         -68.79          82.79         -124.9          50.55          49.24
   0.04373              -11.05          5.404          24.43           40.0         0.1133         -16.74          -68.8          82.79         -124.9          50.55          49.25
    0.0656              -11.05          5.409          24.43           40.0         0.1126         -16.73         -68.81          82.78         -124.9          50.55          49.26
   0.08746              -11.05          5.415          24.44          40.01         0.1117         -16.73         -68.82          82.78         -124.9          50.56          49.27
    0.1093              -11.05          5.421          24.45          40.01         0.1109         -16.73         -68.83          82.77         -124.9          50.56          49.28
    0.1312              -11.05          5.427          24.46          40.02           0.11         -16.73         -68.84          82.77         -124.9          50.56          49.29
    0.1531              -11.06          5.434          24.46          40.02          0.109         -16.72         -68.86          82.76         -124.9          50.56           49.3
    0.1749              -11.06          5.441          24.47          40.03         0.1079         -16.72         -68.87          82.76         -124.9          50.56          49.32
    0.1968              -11.06          5.449          24.48          40.03         0.1068         -16.72         -68.89          82.75         -124.9          50.56          49.33
    0.2187              -11.06          5.458          24.49          40.04         0.1056         -16.71          -68.9          82.75         -124.9          50.57          49.35
    0.2405              -11.07          5.467           24.5          40.04         0.1043         -16.71         -68.92          82.74         -124.8          50.57          49.36
    0.2624              -11.07          5.477          24.52          40.05         0.1029          -16.7         -68.94          82.73         -124.8          50.57          49.38
    0.2843              -11.07          5.488          24.53          40.06         0.1014          -16.7         -68.96          82.73         -124.8          50.57           49.4
    0.3061              -11.08          5.499          24.54          40.07        0.09976         -16.69         -68.98          82.72         -124.8          50.58          49.42
     0.328              -11.08          5.512          24.56          40.07        0.09798         -16.69         -69.01          82.71         -124.8          50.58          49.44
    0.3499              -11.09          5.525          24.58          40.08        0.09605         -16.68         -69.03           82.7         -124.8          50.58          49.47
    0.3717              -11.09           5.54          24.59          40.09        0.09395         -16.67         -69.06          82.69         -124.8          50.59           49.5
    0.3936               -11.1          5.556          24.61          40.11        0.09165         -16.67         -69.09          82.68         -124.8          50.59          49.53
    0.4155               -11.1          5.574          24.64          40.12        0.08913         -16.66         -69.13          82.67         -124.8          50.59          49.56
    0.4373              -11.11          5.593          24.66          40.13        0.08637         -16.65         -69.16          82.65         -124.7           50.6          49.59
    0.4592              -11.12          5.615          24.69          40.15        0.08333         -16.64         -69.21          82.64         -124.7           50.6          49.63
     0.481              -11.12          5.638          24.72          40.16        0.07997         -16.63         -69.25          82.62         -124.7          50.61          49.68
    0.5029              -11.13          5.665          24.75          40.18        0.07625         -16.62          -69.3           82.6         -124.7          50.61          49.72
    0.5248              -11.14          5.694          24.78           40.2        0.07211          -16.6         -69.36          82.58         -124.6          50.62          49.78
    0.5466              -11.15          5.726          24.82          40.22         0.0675         -16.59         -69.42          82.56         -124.6          50.63          49.84
    0.5685              -11.16          5.763          24.87          40.25        0.06233         -16.57         -69.49          82.53         -124.6          50.64           49.9
    0.5904              -11.18          5.804          24.92          40.28        0.05651         -16.55         -69.57          82.51         -124.6          50.65          49.98
    0.6122              -11.19           5.85          24.97          40.31        0.04994         -16.53         -69.66          82.47         -124.5          50.66          50.06
    0.6341              -11.21          5.902          25.04          40.35        0.04248         -16.51         -69.76          82.44         -124.5          50.67          50.16
     0.656              -11.23          5.962          25.11          40.39        0.03396         -16.48         -69.88          82.39         -124.4          50.69          50.27
    0.6778              -11.25          6.031           25.2          40.44        0.02419         -16.45         -70.01          82.35         -124.4           50.7          50.39
    0.6997              -11.28          6.111          25.29          40.49        0.01291         -16.41         -70.16          82.29         -124.3          50.72          50.54
    0.7216              -11.31          6.203          25.41          40.56     -0.0002059         -16.37         -70.34          82.23         -124.2          50.74          50.71
    0.7434              -11.35          6.311          25.54          40.63       -0.01555         -16.32         -70.55          82.15         -124.1          50.77          50.91
    0.7653              -11.39          6.438           25.7          40.72       -0.03363         -16.26         -70.79          82.06         -124.0           50.8          51.14
    0.7872              -11.44           6.59          25.88          40.83       -0.05512         -16.19         -71.08          81.95         -123.9          50.83          51.42
     0.809               -11.5          6.771           26.1          40.96       -0.08089         -16.11         -71.43          81.83         -123.7          50.88          51.75
    0.8309              -11.57          6.991          26.37          41.11        -0.1121         -16.01         -71.85          81.67         -123.5          50.93          52.15
    0.8528              -11.66          7.259           26.7           41.3        -0.1501         -15.88         -72.37          81.49         -123.3          50.99          52.64
    0.8746              -11.77           7.59          27.11          41.53        -0.1971         -15.73         -73.01          81.25         -123.0          51.07          53.24
    0.8965              -11.91          8.002          27.62          41.82        -0.2557         -15.54          -73.8          80.96         -122.6          51.17           54.0
    0.9184              -12.09          8.522          28.25          42.18        -0.3295          -15.3          -74.8           80.6         -122.2          51.29          54.95
